<?xml version="1.0" encoding="UTF-8"?>
<!DOCTYPE svg PUBLIC "-//W3C//DTD SVG 1.1//EN" "http://www.w3.org/Graphics/SVG/1.1/DTD/svg11.dtd">
<svg xmlns="http://www.w3.org/2000/svg" version="1.1" width="7640px" height="1043px" style="shape-rendering:geometricPrecision; text-rendering:geometricPrecision; image-rendering:optimizeQuality; fill-rule:evenodd; clip-rule:evenodd" xmlns:xlink="http://www.w3.org/1999/xlink">
<g><path style="opacity:0.99" fill="#287cfa" d="M 1115.5,-0.5 C 1120.17,-0.5 1124.83,-0.5 1129.5,-0.5C 1170,4.15945 1198.5,25.1595 1215,62.5C 1229.65,107.757 1219.15,145.924 1183.5,177C 1143.75,203.937 1103.75,204.271 1063.5,178C 1026.6,146.596 1015.77,107.762 1031,61.5C 1047.78,25.2043 1075.95,4.53759 1115.5,-0.5 Z"/></g>
<g><path style="opacity:0.992" fill="#287cfa" d="M -0.5,24.5 C 210.5,24.5 421.5,24.5 632.5,24.5C 632.5,73.8333 632.5,123.167 632.5,172.5C 556.5,172.5 480.5,172.5 404.5,172.5C 404.5,380.833 404.5,589.167 404.5,797.5C 345.5,797.5 286.5,797.5 227.5,797.5C 227.5,589.167 227.5,380.833 227.5,172.5C 151.5,172.5 75.5,172.5 -0.5,172.5C -0.5,123.167 -0.5,73.8333 -0.5,24.5 Z"/></g>
<g><path style="opacity:0.99" fill="#7da1c3" d="M 4969.5,24.5 C 5030.14,21.1395 5089.14,29.3061 5146.5,49C 5194.5,67.2116 5236.17,94.7116 5271.5,131.5C 5250.83,152.833 5229.83,173.833 5208.5,194.5C 5150.93,134.405 5080.27,105.072 4996.5,106.5C 4889.52,107.392 4806.69,152.059 4748,240.5C 4704.24,315.028 4689.58,395.028 4704,480.5C 4718.12,560.517 4756.95,625.35 4820.5,675C 4883.28,718.78 4952.94,736.78 5029.5,729C 5077.52,726.265 5123.52,715.265 5167.5,696C 5173.75,692.627 5179.91,689.127 5186,685.5C 5186.5,615.167 5186.67,544.834 5186.5,474.5C 5129.5,474.5 5072.5,474.5 5015.5,474.5C 5015.5,447.167 5015.5,419.833 5015.5,392.5C 5102.5,392.5 5189.5,392.5 5276.5,392.5C 5276.67,507.5 5276.5,622.5 5276,737.5C 5209.11,777.908 5136.61,801.741 5058.5,809C 4995.54,816.635 4933.54,811.968 4872.5,795C 4734.67,749.202 4648.5,655.702 4614,514.5C 4595.77,428.253 4602.1,343.92 4633,261.5C 4685.82,139.134 4777.32,62.9676 4907.5,33C 4928.16,29.0029 4948.82,26.1696 4969.5,24.5 Z"/></g>
<g><path style="opacity:0.994" fill="#287cfa" d="M 1509.5,1042.5 C 1450.5,1042.5 1391.5,1042.5 1332.5,1042.5C 1332.5,784.833 1332.5,527.167 1332.5,269.5C 1385.5,269.5 1438.5,269.5 1491.5,269.5C 1491.33,284.837 1491.5,300.17 1492,315.5C 1546.4,257.033 1613.23,234.2 1692.5,247C 1794.3,267.136 1866.13,324.636 1908,419.5C 1938.79,498.246 1937.79,576.579 1905,654.5C 1859.22,750.92 1783.39,806.754 1677.5,822C 1614.77,828.86 1558.94,812.693 1510,773.5C 1509.5,863.166 1509.33,952.833 1509.5,1042.5 Z M 1628.5,405.5 C 1685.25,408.445 1724.42,436.111 1746,488.5C 1761.66,537.215 1753.32,581.215 1721,620.5C 1680.28,661.643 1633.12,671.143 1579.5,649C 1534.18,624.111 1510.85,585.611 1509.5,533.5C 1510.85,481.389 1534.18,442.889 1579.5,418C 1595.2,410.826 1611.53,406.659 1628.5,405.5 Z"/></g>
<g><path style="opacity:0.994" fill="#287cfa" d="M 2571.5,243.5 C 2657.58,240.62 2731.24,268.953 2792.5,328.5C 2753.85,367.653 2715.01,406.653 2676,445.5C 2633.72,403.925 2585.55,395.425 2531.5,420C 2481.3,451.173 2459.8,496.339 2467,555.5C 2478.35,610.513 2511.18,645.013 2565.5,659C 2608.9,665.646 2645.73,653.146 2676,621.5C 2715.01,660.347 2753.85,699.347 2792.5,738.5C 2722.62,805.734 2639.29,832.901 2542.5,820C 2442.06,801.531 2369.23,746.698 2324,655.5C 2288.67,574.167 2288.67,492.833 2324,411.5C 2367.91,322.264 2438.75,267.764 2536.5,248C 2548.27,246.157 2559.94,244.657 2571.5,243.5 Z"/></g>
<g><path style="opacity:0.994" fill="#287cfa" d="M 3097.5,243.5 C 3205.57,241.289 3291.07,283.622 3354,370.5C 3407.19,454.047 3417.53,542.713 3385,636.5C 3345.75,732.078 3275.92,792.244 3175.5,817C 3070.42,836.288 2979.92,808.788 2904,734.5C 2840.61,664.982 2814.94,583.316 2827,489.5C 2842.41,400.845 2887.91,332.678 2963.5,285C 3004.98,260.634 3049.65,246.801 3097.5,243.5 Z M 3111.5,405.5 C 3166.64,408.309 3205.14,434.975 3227,485.5C 3243.92,534.551 3236.25,579.218 3204,619.5C 3165.84,659.33 3120.68,670.163 3068.5,652C 3018.99,628.263 2993.32,588.763 2991.5,533.5C 2993.32,478.237 3018.99,438.737 3068.5,415C 3082.47,409.575 3096.81,406.408 3111.5,405.5 Z"/></g>
<g><path style="opacity:0.995" fill="#287cfa" d="M 3788.5,243.5 C 3840.59,240.256 3886.59,255.089 3926.5,288C 3939.37,299.947 3950.21,313.447 3959,328.5C 3993.66,274.904 4043.16,246.737 4107.5,244C 4157.61,240.028 4203.61,251.694 4245.5,279C 4279.25,305.303 4300.75,339.47 4310,381.5C 4312.57,393.037 4314.23,404.704 4315,416.5C 4315.5,543.5 4315.67,670.5 4315.5,797.5C 4256.83,797.5 4198.17,797.5 4139.5,797.5C 4139.98,683.144 4139.48,568.81 4138,454.5C 4128.82,414.145 4103.65,392.145 4062.5,388.5C 4020.9,392.26 3995.74,414.594 3987,455.5C 3985.52,569.479 3985.02,683.479 3985.5,797.5C 3930.5,797.5 3875.5,797.5 3820.5,797.5C 3820.98,683.483 3820.48,569.483 3819,455.5C 3810.23,414.555 3785.06,392.222 3743.5,388.5C 3702.8,392.027 3677.63,413.694 3668,453.5C 3666.52,568.144 3666.02,682.81 3666.5,797.5C 3607.83,797.5 3549.17,797.5 3490.5,797.5C 3490.5,621.5 3490.5,445.5 3490.5,269.5C 3543.5,269.5 3596.5,269.5 3649.5,269.5C 3649.33,288.503 3649.5,307.503 3650,326.5C 3682.3,275.924 3728.47,248.257 3788.5,243.5 Z"/></g>
<g><path style="opacity:0.994" fill="#287cfa" d="M 894.5,267.5 C 912.217,267.123 929.884,267.79 947.5,269.5C 947.5,323.5 947.5,377.5 947.5,431.5C 894.844,422.889 849.344,436.889 811,473.5C 789.704,497.775 777.371,526.108 774,558.5C 773.5,638.166 773.333,717.833 773.5,797.5C 714.5,797.5 655.5,797.5 596.5,797.5C 596.5,621.5 596.5,445.5 596.5,269.5C 649.5,269.5 702.5,269.5 755.5,269.5C 755.333,296.502 755.5,323.502 756,350.5C 789.748,302.28 835.914,274.613 894.5,267.5 Z"/></g>
<g><path style="opacity:0.99" fill="#287cfa" d="M 1034.5,269.5 C 1093.5,269.5 1152.5,269.5 1211.5,269.5C 1211.5,445.5 1211.5,621.5 1211.5,797.5C 1152.5,797.5 1093.5,797.5 1034.5,797.5C 1034.5,621.5 1034.5,445.5 1034.5,269.5 Z"/></g>
<g><path style="opacity:0.988" fill="#7da1c3" d="M 5952.5,269.5 C 6051.66,266.34 6131.49,303.673 6192,381.5C 6245.73,459.609 6258.06,543.942 6229,634.5C 6200.85,708.646 6150.69,762.146 6078.5,795C 5987.73,830.506 5901.06,822.506 5818.5,771C 5747.44,721.433 5707.28,653.266 5698,566.5C 5692.46,470.724 5725.96,391.891 5798.5,330C 5843.71,294.427 5895.04,274.261 5952.5,269.5 Z M 5962.5,345.5 C 6046.25,347.111 6106.42,385.444 6143,460.5C 6170.37,527.379 6165.37,591.713 6128,653.5C 6081.1,720.486 6016.94,748.32 5935.5,737C 5868.67,720.67 5821.84,680.837 5795,617.5C 5768.21,540.793 5780.54,471.126 5832,408.5C 5867.27,370.449 5910.77,349.449 5962.5,345.5 Z"/></g>
<g><path style="opacity:0.991" fill="#7da1c3" d="M 6986.5,1042.5 C 6957.83,1042.5 6929.17,1042.5 6900.5,1042.5C 6900.5,792.5 6900.5,542.5 6900.5,292.5C 6929.17,292.5 6957.83,292.5 6986.5,292.5C 6986.33,315.836 6986.5,339.169 6987,362.5C 7019.2,322.959 7060.37,297.459 7110.5,286C 7177.81,271.997 7241.48,281.663 7301.5,315C 7361.55,352.203 7399.72,405.37 7416,474.5C 7433.01,550.427 7422.34,622.094 7384,689.5C 7338.48,759.039 7273.98,797.539 7190.5,805C 7116.63,810.946 7052.79,788.779 6999,738.5C 6995,733.833 6991,729.167 6987,724.5C 6986.5,830.499 6986.33,936.499 6986.5,1042.5 Z M 7144.5,354.5 C 7200.69,350.943 7248.19,369.276 7287,409.5C 7309.79,437.161 7324.13,468.828 7330,504.5C 7338.87,557.815 7329.87,607.815 7303,654.5C 7276.98,694.13 7240.48,718.297 7193.5,727C 7120.12,738.774 7060.29,715.941 7014,658.5C 6978.46,604.078 6969.46,545.411 6987,482.5C 7005.84,423.997 7044.01,384.164 7101.5,363C 7115.71,358.791 7130.04,355.958 7144.5,354.5 Z"/></g>
<g><path style="opacity:0.986" fill="#7da1c3" d="M 5633.5,282.5 C 5649.82,281.992 5665.98,282.992 5682,285.5C 5682.5,312.165 5682.67,338.831 5682.5,365.5C 5622.76,349.973 5571.26,363.973 5528,407.5C 5506.98,431.556 5494.64,459.556 5491,491.5C 5490.5,592.166 5490.33,692.833 5490.5,793.5C 5461.5,793.5 5432.5,793.5 5403.5,793.5C 5403.5,626.5 5403.5,459.5 5403.5,292.5C 5430.83,292.5 5458.17,292.5 5485.5,292.5C 5486.3,312.136 5486.8,331.803 5487,351.5C 5526.69,309.242 5575.52,286.242 5633.5,282.5 Z"/></g>
<g><path style="opacity:0.989" fill="#7da1c3" d="M 6338.5,292.5 C 6367.17,292.5 6395.83,292.5 6424.5,292.5C 6424.33,391.834 6424.5,491.167 6425,590.5C 6425.69,616.26 6430.35,641.26 6439,665.5C 6454.35,701.179 6481.18,722.346 6519.5,729C 6587.95,738.199 6637.45,712.032 6668,650.5C 6679.16,626.051 6685.49,600.384 6687,573.5C 6687.5,479.834 6687.67,386.167 6687.5,292.5C 6716.5,292.5 6745.5,292.5 6774.5,292.5C 6774.5,459.5 6774.5,626.5 6774.5,793.5C 6748.17,793.5 6721.83,793.5 6695.5,793.5C 6695.67,770.831 6695.5,748.164 6695,725.5C 6643.22,787.285 6577.05,813.452 6496.5,804C 6426.79,795.602 6379.29,758.769 6354,693.5C 6345.67,670.539 6340.67,646.873 6339,622.5C 6338.5,512.501 6338.33,402.501 6338.5,292.5 Z"/></g>
<g><path style="opacity:0.953" fill="#7da1c3" d="M 7422.5,292.5 C 7451.5,292.5 7480.5,292.5 7509.5,292.5C 7509.5,298.167 7509.5,303.833 7509.5,309.5C 7498.5,309.5 7487.5,309.5 7476.5,309.5C 7476.5,340.167 7476.5,370.833 7476.5,401.5C 7469.5,401.5 7462.5,401.5 7455.5,401.5C 7455.5,370.833 7455.5,340.167 7455.5,309.5C 7444.5,309.5 7433.5,309.5 7422.5,309.5C 7422.5,303.833 7422.5,298.167 7422.5,292.5 Z"/></g>
<g><path style="opacity:0.965" fill="#7da1c3" d="M 7639.5,292.5 C 7639.5,328.833 7639.5,365.167 7639.5,401.5C 7632.83,401.5 7626.17,401.5 7619.5,401.5C 7619.67,373.165 7619.5,344.831 7619,316.5C 7608,344.676 7597.5,373.009 7587.5,401.5C 7582.24,401.805 7577.07,401.471 7572,400.5C 7561.67,372.833 7551.33,345.167 7541,317.5C 7540.5,345.498 7540.33,373.498 7540.5,401.5C 7534.17,401.5 7527.83,401.5 7521.5,401.5C 7521.5,365.167 7521.5,328.833 7521.5,292.5C 7531.85,292.168 7542.19,292.501 7552.5,293.5C 7561.76,318.128 7570.93,342.795 7580,367.5C 7589.45,342.983 7598.62,318.316 7607.5,293.5C 7618.15,292.501 7628.81,292.168 7639.5,292.5 Z"/></g>
<g><path style="opacity:0.991" fill="#feb400" d="M 2109.5,611.5 C 2157.5,612.383 2191.67,634.383 2212,677.5C 2228.51,726.637 2217.34,768.137 2178.5,802C 2144.4,825.637 2108.07,829.637 2069.5,814C 2030.09,794.033 2009.76,761.867 2008.5,717.5C 2010.17,671.978 2031.5,639.478 2072.5,620C 2084.58,615.394 2096.91,612.561 2109.5,611.5 Z"/></g>
</svg>
