<svg fill="none" stroke="#fff" viewBox="0 0 1501 847" xmlns="http://www.w3.org/2000/svg"><g stroke-width="7.78561"><path d="m1454.15-287.784c-32.22 10.964-95.76 58.717-92.18 162.021 4.46 129.12953 101.92 209.9371 126.29 331.757 17.98 89.913 15.43 315.109-94.21 409.723"/><path d="m1410.27-261.135c-32.22 10.964-95.76 58.718-92.18 162.0213 4.46 129.1296 101.92 209.9367 126.28 331.7577 17.99 89.912 15.44 315.109-94.2 409.722"/><path d="m1365.72-235.61c-32.22 10.964-95.75 58.717-92.18 162.021 4.47 129.1296 101.92 209.937 126.29 331.758 17.98 89.912 15.43 315.108-94.21 409.722"/><path d="m1320.55-211.202c-32.22 10.964-95.76 58.718-92.18 162.0214 4.47 129.1297 101.92 209.9376 126.29 331.7576 17.98 89.912 15.43 315.109-94.21 409.723"/><path d="m1274.76-187.959c-32.21 10.964-95.75 58.717-92.17 162.0211 4.46 129.1299 101.92 209.9369 126.28 331.7579 17.99 89.912 15.43 315.108-94.2 409.722"/><path d="m1228.37-165.968c-32.21 10.964-95.75 58.718-92.18 162.02133 4.47 129.12967 101.93 209.93667 126.29 331.75767 17.98 89.912 15.43 315.109-94.21 409.722"/><path d="m1181.35-145.348c-32.22 10.963-95.75 58.717-92.18 162.0207 4.47 129.1293 101.92 209.9373 126.29 331.7573 17.98 89.913 15.43 315.109-94.21 409.723"/><path d="m1133.69-126.258c-32.22 10.964-95.75 58.7179-92.18 162.0215 4.47 129.1295 101.92 209.9375 126.29 331.7575 17.98 89.913 15.43 315.109-94.21 409.723"/><path d="m1085.37-108.892c-32.22 10.964-95.751 58.7176-92.178 162.0213 4.467 129.1297 101.928 209.9367 126.288 331.7577 17.98 89.912 15.43 315.108-94.21 409.722"/><path d="m1036.39-93.5049c-32.22 10.9639-95.755 58.7174-92.181 162.0211 4.467 129.1298 101.921 209.9368 126.291 331.7578 17.98 89.912 15.43 315.108-94.212 409.722"/><path d="m986.739-80.4155c-32.214 10.9638-95.751 58.7174-92.177 162.0211 4.467 129.1294 101.923 209.9374 126.288 331.7574 17.98 89.913 15.43 315.109-94.209 409.723"/><path d="m936.458-70.0283c-32.214 10.9638-95.751 58.7174-92.177 162.0211 4.467 129.1292 101.923 209.9372 126.287 331.7572 17.982 89.913 15.431 315.109-94.208 409.723"/><path d="m885.618-62.8594c-32.215 10.9639-95.751 58.71745-92.177 162.0211 4.466 129.1293 101.923 209.9373 126.287 331.7573 17.982 89.913 15.43 315.109-94.208 409.723"/><path d="m834.381-59.5508c-32.214 10.9639-95.75 58.717445-92.177 162.0208 4.467 129.13 101.923 209.937 126.287 331.758 17.983 89.912 15.431 315.109-94.208 409.722"/><path d="m783.056-60.897c-32.215 10.9639-95.751 58.71745-92.177 162.021 4.466 129.13 101.923 209.937 126.287 331.758 17.982 89.912 15.43 315.108-94.208 409.722"/><path d="m732.18-67.8115c-32.214 10.9638-95.75 58.7174-92.177 162.0211 4.467 129.1294 101.923 209.9374 126.287 331.7574 17.983 89.913 15.431 315.109-94.208 409.723"/><path d="m682.62-81.2271c-32.214 10.9639-95.75 58.7175-92.177 162.0212 4.467 129.1299 101.923 209.9369 126.287 331.7579 17.983 89.912 15.431 315.108-94.208 409.722"/><path d="m627.076-105.469c-32.214 10.9638-95.75 58.7174-92.177 162.0211 4.467 129.1299 101.923 209.9369 126.287 331.7579 17.983 89.912 15.431 315.108-94.208 409.722"/><path d="m579.487-124.742c-32.215 10.964-95.751 58.7172-92.178 162.0209 4.467 129.1301 101.923 209.9371 126.288 331.7571 17.982 89.913 15.43 315.109-94.208 409.723"/><path d="m530.469-140.016c-32.215 10.964-95.751 58.7176-92.178 162.0212 4.467 129.1298 101.923 209.9368 126.287 331.7578 17.983 89.912 15.431 315.108-94.207 409.722"/><path d="m480.358-151.198c-32.215 10.964-95.751 58.7172-92.178 162.0209 4.467 129.1291 101.923 209.9371 126.287 331.7571 17.983 89.913 15.431 315.109-94.207 409.723"/><path d="m429.506-158.29c-32.214 10.964-95.75 58.7176-92.177 162.02131 4.467 129.12969 101.923 209.93669 126.287 331.75769 17.983 89.912 15.431 315.109-94.208 409.722"/><path d="m378.257-161.38c-32.215 10.963-95.751 58.717-92.178 162.020736 4.467 129.129264 101.923 209.937264 126.288 331.757264 17.982 89.913 15.43 315.109-94.208 409.723"/><path d="m326.919-160.627c-32.215 10.963-95.751 58.717-92.178 162.02067 4.467 129.12933 101.923 209.93733 126.287 331.75733 17.983 89.913 15.431 315.109-94.207 409.723"/><path d="m275.764-156.235c-32.215 10.963-95.751 58.7171-92.178 162.02076 4.467 129.12924 101.923 209.93724 126.287 331.75724 17.983 89.913 15.431 315.109-94.207 409.723"/><path d="m225.018-148.427c-32.215 10.964-95.751 58.7177-92.177 162.0213 4.466 129.1297 101.923 209.9367 126.287 331.7577 17.982 89.912 15.43 315.109-94.208 409.722"/><path d="m174.866-137.428c-32.214 10.963-95.7503 58.717-92.1769 162.0206 4.4667 129.1294 101.9229 209.9374 126.2869 331.7574 17.983 89.913 15.431 315.109-94.208 409.723"/><path d="m125.463-123.447c-32.2146 10.964-95.7507 58.7176-92.1773 162.0213 4.4668 129.1297 101.9233 209.9367 126.2873 331.7577 17.982 89.912 15.43 315.109-94.2079 409.722"/><path d="m76.9548-106.657c-32.2147 10.9634-95.7508 58.717-92.1774 162.0206 4.4668 129.1294 101.9231 209.9374 126.2876 331.7574 17.982 89.913 15.43 315.109-94.2082 409.723"/></g></svg>